<svg width="18" height="19" viewBox="0 0 18 19" fill="none" xmlns="http://www.w3.org/2000/svg">
    <path d="M17.5125 7.72187L10.0125 0.906243C9.736 0.653268 9.3748 0.51297 9.00002 0.51297C8.62524 0.51297 8.26404 0.653268 7.98752 0.906243L0.487517 7.72187C0.333959 7.86235 0.211316 8.03325 0.127388 8.22371C0.0434594 8.41416 8.3063e-05 8.61999 1.69262e-05 8.82812V17.4625C-0.00608103 17.8407 0.127429 18.2078 0.375017 18.4937C0.515537 18.6535 0.68864 18.7814 0.882687 18.8687C1.07673 18.956 1.28723 19.0008 1.50002 19H6.00002C6.19893 19 6.38969 18.921 6.53035 18.7803C6.671 18.6397 6.75002 18.4489 6.75002 18.25V13.75C6.75002 13.5511 6.82903 13.3603 6.96969 13.2197C7.11034 13.079 7.30111 13 7.50002 13H10.5C10.6989 13 10.8897 13.079 11.0303 13.2197C11.171 13.3603 11.25 13.5511 11.25 13.75V18.25C11.25 18.4489 11.329 18.6397 11.4697 18.7803C11.6103 18.921 11.8011 19 12 19H16.5C16.7488 19.0022 16.994 18.9409 17.2125 18.8219C17.4503 18.6924 17.6488 18.5014 17.7874 18.2688C17.9259 18.0362 17.9994 17.7707 18 17.5V8.82812C18 8.61999 17.9566 8.41416 17.8726 8.22371C17.7887 8.03325 17.6661 7.86235 17.5125 7.72187Z" fill="#CDD2DE"/>
</svg>
