<svg width="14" height="14" viewBox="0 0 14 14" fill="none" xmlns="http://www.w3.org/2000/svg">
    <path d="M7.67175 1.07825C7.49359 0.900089 7.25196 0.8 7 0.8C6.74804 0.8 6.50641 0.900089 6.32825 1.07825C6.15009 1.25641 6.05 1.49804 6.05 1.75V6.05H1.75C1.49804 6.05 1.25641 6.15009 1.07825 6.32825C0.900089 6.50641 0.8 6.74804 0.8 7C0.8 7.25196 0.900089 7.49359 1.07825 7.67175C1.25641 7.84991 1.49804 7.95 1.75 7.95H6.05V12.25C6.05 12.502 6.15009 12.7436 6.32825 12.9218C6.50641 13.0999 6.74804 13.2 7 13.2C7.25196 13.2 7.49359 13.0999 7.67175 12.9218C7.84991 12.7436 7.95 12.502 7.95 12.25V7.95H12.25C12.502 7.95 12.7436 7.84991 12.9218 7.67175C13.0999 7.49359 13.2 7.25196 13.2 7C13.2 6.74804 13.0999 6.50641 12.9218 6.32825C12.7436 6.15009 12.502 6.05 12.25 6.05H7.95V1.75C7.95 1.49804 7.84991 1.25641 7.67175 1.07825Z" fill="white" stroke="white" stroke-width="0.4"/>
</svg>
