<svg width="20" height="20" viewBox="0 0 20 20" fill="none" xmlns="http://www.w3.org/2000/svg">
    <path d="M10 0.25C8.07164 0.25 6.18657 0.821828 4.58319 1.89317C2.97982 2.96451 1.73013 4.48726 0.992179 6.26884C0.254225 8.05042 0.061142 10.0108 0.437348 11.9021C0.813554 13.7934 1.74215 15.5307 3.10571 16.8943C4.46928 18.2579 6.20656 19.1865 8.09787 19.5627C9.98919 19.9389 11.9496 19.7458 13.7312 19.0078C15.5127 18.2699 17.0355 17.0202 18.1068 15.4168C19.1782 13.8134 19.75 11.9284 19.75 10C19.745 7.41566 18.7162 4.93859 16.8888 3.11118C15.0614 1.28378 12.5843 0.254956 10 0.25ZM13.375 7C13.5975 7 13.815 7.06598 14 7.1896C14.185 7.31321 14.3292 7.48891 14.4144 7.69448C14.4995 7.90005 14.5218 8.12625 14.4784 8.34448C14.435 8.56271 14.3278 8.76316 14.1705 8.9205C14.0132 9.07783 13.8127 9.18498 13.5945 9.22838C13.3763 9.27179 13.1501 9.24951 12.9445 9.16436C12.7389 9.07922 12.5632 8.93502 12.4396 8.75002C12.316 8.56501 12.25 8.3475 12.25 8.125C12.25 7.82663 12.3685 7.54048 12.5795 7.3295C12.7905 7.11853 13.0766 7 13.375 7ZM6.625 7C6.84751 7 7.06502 7.06598 7.25002 7.1896C7.43503 7.31321 7.57922 7.48891 7.66437 7.69448C7.74952 7.90005 7.7718 8.12625 7.72839 8.34448C7.68498 8.56271 7.57783 8.76316 7.4205 8.9205C7.26317 9.07783 7.06271 9.18498 6.84448 9.22838C6.62625 9.27179 6.40005 9.24951 6.19449 9.16436C5.98892 9.07922 5.81322 8.93502 5.6896 8.75002C5.56598 8.56501 5.5 8.3475 5.5 8.125C5.5 7.82663 5.61853 7.54048 5.82951 7.3295C6.04049 7.11853 6.32664 7 6.625 7ZM14.5469 12.625C14.0861 13.4232 13.4234 14.0861 12.6252 14.5469C11.8271 15.0078 10.9217 15.2504 10 15.2504C9.07835 15.2504 8.17295 15.0078 7.37479 14.5469C6.57664 14.0861 5.91388 13.4232 5.45313 12.625C5.39443 12.5398 5.35398 12.4435 5.33432 12.3419C5.31466 12.2404 5.31621 12.1359 5.33888 12.035C5.36154 11.9341 5.40484 11.8389 5.46604 11.7556C5.52723 11.6722 5.60502 11.6024 5.69449 11.5505C5.78397 11.4986 5.88321 11.4658 5.98597 11.4541C6.08874 11.4425 6.1928 11.4522 6.29164 11.4826C6.39047 11.5131 6.48193 11.5637 6.56028 11.6312C6.63862 11.6988 6.70215 11.7817 6.74688 11.875C7.07718 12.4453 7.55159 12.9187 8.12256 13.2478C8.69352 13.577 9.34097 13.7502 10 13.7502C10.659 13.7502 11.3065 13.577 11.8775 13.2478C12.4484 12.9187 12.9228 12.4453 13.2531 11.875C13.3603 11.7196 13.5221 11.6103 13.7063 11.5689C13.8905 11.5275 14.0835 11.5571 14.2468 11.6518C14.4101 11.7465 14.5317 11.8993 14.5873 12.0797C14.643 12.2601 14.6285 12.4548 14.5469 12.625Z" fill="#CDD2DE"/>
</svg>
