<svg width="14" height="18" viewBox="0 0 14 18" fill="none" xmlns="http://www.w3.org/2000/svg">
<path d="M10.3333 4.83333C10.3333 5.71739 9.98214 6.56523 9.35702 7.19036C8.7319 7.81548 7.88405 8.16667 7 8.16667C6.11594 8.16667 5.26809 7.81548 4.64297 7.19036C4.01785 6.56523 3.66666 5.71739 3.66666 4.83333C3.66666 3.94928 4.01785 3.10143 4.64297 2.47631C5.26809 1.85119 6.11594 1.5 7 1.5C7.88405 1.5 8.7319 1.85119 9.35702 2.47631C9.98214 3.10143 10.3333 3.94928 10.3333 4.83333ZM7 10.6667C5.4529 10.6667 3.96917 11.2812 2.87521 12.3752C1.78124 13.4692 1.16666 14.9529 1.16666 16.5H12.8333C12.8333 14.9529 12.2187 13.4692 11.1248 12.3752C10.0308 11.2812 8.54709 10.6667 7 10.6667Z" stroke="#96A7AF" stroke-width="2" stroke-linecap="round" stroke-linejoin="round"/>
</svg>
